<?xml version="1.0" encoding="utf-8"?>
<!-- Generator: Adobe Illustrator 15.1.0, SVG Export Plug-In . SVG Version: 6.00 Build 0)  -->
<!DOCTYPE svg PUBLIC "-//W3C//DTD SVG 1.1//EN" "http://www.w3.org/Graphics/SVG/1.1/DTD/svg11.dtd">
<svg version="1.1" id="Ebene_1" xmlns="http://www.w3.org/2000/svg" xmlns:xlink="http://www.w3.org/1999/xlink" x="0px" y="0px"
	 width="230.5px" height="90.5px" viewBox="-27.25 -13 230.5 90.5" enable-background="new -27.25 -13 230.5 90.5"
	 xml:space="preserve">
<rect x="-22" y="-8" fill="#FFFFFF" width="220" height="80"/>
<path fill="#1A4494" d="M-22-8h220v80.001H-22V-8z M24.641,12.906c-2.1-0.428-4.273-0.76-6.529-1.001
	c-2.253-0.235-4.458-0.356-6.614-0.36c-2.292-0.015-4.631,0.141-7.002,0.474c-2.377,0.332-4.576,0.947-6.598,1.853
	c-2.022,0.901-3.656,2.197-4.901,3.893c-1.243,1.69-1.881,3.887-1.919,6.588c0.056,3.031,0.783,5.376,2.17,7.034
	c1.394,1.658,3.12,2.88,5.177,3.648c2.063,0.774,4.122,1.345,6.185,1.722c2.057,0.371,3.783,0.783,5.177,1.236
	c1.387,0.458,2.114,1.194,2.17,2.216c-0.06,0.974-0.749,1.676-2.07,2.097c-1.318,0.419-2.903,0.627-4.756,0.613
	c-2.304,0-4.637-0.228-6.995-0.664c-2.361-0.439-4.582-1.084-6.655-1.932v10.239c2.803,0.646,5.513,1.121,8.125,1.421
	C2.22,52.285,4.97,52.435,7.86,52.43c3.017,0.03,5.99-0.33,8.934-1.084c2.939-0.751,5.393-2.093,7.351-4.023
	c1.961-1.932,2.977-4.642,3.054-8.133c-0.055-3.005-0.776-5.332-2.171-6.972c-1.392-1.64-3.117-2.835-5.176-3.586
	c-2.061-0.759-4.12-1.309-6.177-1.658c-2.063-0.353-3.788-0.742-5.178-1.172c-1.395-0.434-2.117-1.142-2.175-2.135
	c0.041-0.836,0.429-1.438,1.166-1.814c0.74-0.371,1.612-0.599,2.618-0.687c1.011-0.086,1.926-0.125,2.759-0.105
	c4.381,0.062,8.306,0.723,11.777,1.982V12.906 M28.251,12.255l9.272,39.527h16.722l6.313-25.822h0.118l6.655,25.822h16.38
	l9.561-39.527H79.675L74.781,37.51H74.67l-6.204-25.255H53.849L47.48,37.51h-0.114l-4.837-25.255H28.251z M113.682,20.748
	l4.32,12.97h-8.816l4.379-12.97H113.682z M89.445,51.782h15.19l2.446-8.552h12.852l2.622,8.552h14.065l-10.334-39.527h-25.353
	l-9.573,39.527H89.445z M165.637,31.735v10.534c-0.467,0.161-0.986,0.261-1.558,0.298c-0.573,0.034-1.133,0.046-1.685,0.041
	c-2.017-0.026-3.641-0.503-4.857-1.434c-1.225-0.93-2.104-2.162-2.645-3.701c-0.549-1.535-0.813-3.22-0.804-5.057
	c0.05-3.604,1.2-6.335,3.448-8.191c2.245-1.853,5.287-2.788,9.125-2.796c2.164,0.017,4.172,0.238,6.02,0.665
	c1.847,0.43,3.327,0.963,4.44,1.604V13.046c-1.247-0.301-2.535-0.561-3.88-0.782c-1.351-0.219-2.898-0.388-4.648-0.509
	c-1.752-0.119-3.854-0.18-6.317-0.18c-4.304,0-8.243,0.736-11.825,2.207c-3.576,1.473-6.455,3.684-8.618,6.625
	c-2.165,2.948-3.271,6.627-3.335,11.042c0.054,4.702,1.131,8.605,3.232,11.715c2.105,3.113,4.943,5.441,8.517,6.982
	c3.568,1.55,7.579,2.317,12.028,2.317c3.093,0.004,5.967-0.166,8.604-0.506c2.641-0.339,5.254-0.887,7.836-1.647V31.735H165.637z"/>
<path fill="#FFFFFF" d="M185.727,15.873c0.586,0,1.102,0.042,1.102,0.652c0,0.648-0.907,0.541-1.567,0.541h-0.746v-1.193H185.727z
	 M186.23,17.761c0.651-0.023,1.302-0.371,1.302-1.312c0-1.013-0.793-1.275-1.673-1.275h-2.054v4.801h0.706v-2.214h0.905l1.247,2.214
	h0.807L186.23,17.761z M185.482,13.971c1.986,0,3.639,1.553,3.639,3.571c0,2.01-1.65,3.575-3.639,3.575
	c-1.986,0-3.64-1.565-3.64-3.575C181.843,15.524,183.496,13.971,185.482,13.971 M185.482,21.812c2.422,0,4.345-1.889,4.345-4.269
	c0-2.375-1.92-4.264-4.345-4.264c-2.428,0-4.346,1.889-4.346,4.264C181.14,19.921,183.055,21.812,185.482,21.812"/>
</svg>
